{"asset":{"version":"2.0","generator":"babylon.js glTF exporter for 3dsmax 2019 v20230905.2"},"scene":0,"scenes":[{"nodes":[0]}],"nodes":[{"children":[1,2],"rotation":[0.7071068,0.0,0.0,0.7071067],"scale":[0.01,0.01,0.01],"name":"World"},{"mesh":0,"rotation":[1.4210856E-15,0.0,0.0,1.0],"scale":[9.999999,9.999999,9.999999],"name":"Ground"},{"children":[3],"translation":[779.194946,2193.60815,2910.14966],"rotation":[1.77635684E-15,0.0,0.0,1.0],"name":"Obstacles"},{"children":[4,5,6,7,8,9,10,11,12,13,14,15,16,17,18,19,20,21,22,23,24,25,26,27,28,29,30,31,32,33,34,35,36,37,38,39,40,41,42,43,44,45,46,47,48,49,50,51,52,53,54,55,56,57,58,59,60,61,62,63,64,65,66,67,68,69,70,71,72,73,74,75,76,77,78,79,80],"translation":[50.0,-50.0,0.0],"rotation":[1.77635684E-15,0.0,0.0,1.0],"name":"Some_Cubes"},{"mesh":1,"translation":[-2579.19482,-2193.60815,-3010.14966],"rotation":[2.07241645E-15,0.0,0.0,1.0],"scale":[3.0,3.0,2.0],"name":"Cube"},{"mesh":1,"translation":[-1179.19507,-4193.608,-3010.14966],"rotation":[2.07241645E-15,0.0,0.0,1.0],"scale":[3.0,3.0,2.0],"name":"Cube_1"},{"mesh":1,"translation":[-1779.19507,-4493.608,-3010.14966],"rotation":[2.07241645E-15,0.0,0.0,1.0],"scale":[3.0,3.0,2.0],"name":"Cube_2"},{"mesh":1,"translation":[-2179.195,-3593.609,-2910.14966],"rotation":[2.07241645E-15,0.0,0.0,1.0],"scale":[3.0,3.0,2.0],"name":"Cube_3"},{"mesh":1,"translation":[-1379.19507,-3593.609,-2990.14941],"rotation":[2.07241645E-15,0.0,0.0,1.0],"scale":[3.0,3.0,2.0],"name":"Cube_4"},{"mesh":1,"translation":[-2579.19482,-2793.60815,-3010.14966],"rotation":[2.07241645E-15,0.0,0.0,1.0],"scale":[3.0,3.0,2.0],"name":"Cube_5"},{"mesh":1,"translation":[-2079.195,-4893.608,-3010.14941],"rotation":[2.07241645E-15,0.0,0.0,1.0],"scale":[3.0,3.0,2.0],"name":"Cube_6"},{"mesh":1,"translation":[-1979.19507,-2793.60815,-3010.14966],"rotation":[2.07241645E-15,0.0,0.0,1.0],"scale":[3.0,3.0,2.0],"name":"Cube_7"},{"mesh":1,"translation":[-1779.19507,-4893.608,-3010.14941],"rotation":[2.07241645E-15,0.0,0.0,1.0],"scale":[3.0,3.0,2.0],"name":"Cube_8"},{"mesh":1,"translation":[-2605.02344,-3593.609,-2829.172],"rotation":[2.07359256E-15,0.0336719751,7.405688E-17,0.999433],"scale":[3.0,3.0,2.0],"name":"Cube_9"},{"mesh":1,"translation":[-779.195,-2793.60815,-3010.14966],"rotation":[2.07241645E-15,0.0,0.0,1.0],"scale":[3.0,3.0,2.0],"name":"Cube_10"},{"mesh":1,"translation":[-1579.0,-3598.00049,-2970.0],"rotation":[2.07241645E-15,0.0,0.0,1.0],"scale":[3.0,3.0,2.0],"name":"Cube_11"},{"mesh":1,"translation":[-3279.19434,-4893.608,-3010.14941],"rotation":[2.07241645E-15,0.0,0.0,1.0],"scale":[3.0,3.0,2.0],"name":"Cube_12"},{"mesh":1,"translation":[-1179.19507,-3593.609,-3010.14966],"rotation":[2.07241645E-15,0.0,0.0,1.0],"scale":[3.0,3.0,2.0],"name":"Cube_13"},{"mesh":1,"translation":[-2979.19482,-4293.608,-3010.14966],"rotation":[2.07241645E-15,0.0,0.0,1.0],"scale":[3.0,3.0,2.0],"name":"Cube_14"},{"mesh":1,"translation":[-1379.19507,-2193.60815,-3010.14966],"rotation":[2.07241645E-15,0.0,0.0,1.0],"scale":[3.0,3.0,2.0],"name":"Cube_15"},{"mesh":1,"translation":[-1979.00012,-3598.00049,-2930.0],"rotation":[2.07241645E-15,0.0,0.0,1.0],"scale":[3.0,3.0,2.0],"name":"Cube_16"},{"mesh":1,"translation":[-2679.19482,-4893.608,-3010.14941],"rotation":[2.07241645E-15,0.0,0.0,1.0],"scale":[3.0,3.0,2.0],"name":"Cube_17"},{"mesh":1,"translation":[-1479.19507,-4593.608,-3010.14966],"rotation":[2.07241645E-15,0.0,0.0,1.0],"scale":[3.0,3.0,2.0],"name":"Cube_18"},{"mesh":1,"translation":[-1979.19507,-2193.60815,-3010.14966],"rotation":[2.07241645E-15,0.0,0.0,1.0],"scale":[3.0,3.0,2.0],"name":"Cube_19"},{"mesh":1,"translation":[-3279.19434,-4293.608,-3010.14966],"rotation":[2.07241645E-15,0.0,0.0,1.0],"scale":[3.0,3.0,2.0],"name":"Cube_20"},{"mesh":1,"translation":[-1479.19507,-4893.608,-3010.14941],"rotation":[2.07241645E-15,0.0,0.0,1.0],"scale":[3.0,3.0,2.0],"name":"Cube_21"},{"mesh":1,"translation":[-2679.19482,-4593.608,-3010.14966],"rotation":[2.07241645E-15,0.0,0.0,1.0],"scale":[3.0,3.0,2.0],"name":"Cube_22"},{"mesh":1,"translation":[-1179.19507,-3893.609,-3010.14966],"rotation":[2.07241645E-15,0.0,0.0,1.0],"scale":[3.0,3.0,2.0],"name":"Cube_23"},{"mesh":1,"translation":[-2361.44678,-3593.609,-2883.80713],"rotation":[2.08159321E-15,0.09379429,2.973704E-16,0.99559164],"scale":[3.00000024,3.0,2.0],"name":"Cube_24"},{"mesh":1,"translation":[-1479.19507,-4193.608,-3010.14966],"rotation":[2.07241645E-15,0.0,0.0,1.0],"scale":[3.0,3.0,2.0],"name":"Cube_25"},{"mesh":1,"translation":[-748.459534,-2193.60815,-3010.14966],"rotation":[2.07241645E-15,0.0,0.0,1.0],"scale":[3.0,3.0,2.0],"name":"Cube_26"},{"mesh":1,"translation":[-1779.19507,-4193.608,-3010.14966],"rotation":[2.07241645E-15,0.0,0.0,1.0],"scale":[3.0,3.0,2.0],"name":"Cube_27"},{"mesh":1,"translation":[-2079.195,-4193.608,-3010.14966],"rotation":[2.07241645E-15,0.0,0.0,1.0],"scale":[3.0,3.0,2.0],"name":"Cube_28"},{"mesh":1,"translation":[-2679.19482,-4293.608,-3010.14966],"rotation":[2.07241645E-15,0.0,0.0,1.0],"scale":[3.0,3.0,2.0],"name":"Cube_29"},{"mesh":1,"translation":[-1779.19507,-3593.609,-2950.14966],"rotation":[2.07241645E-15,0.0,0.0,1.0],"scale":[3.0,3.0,2.0],"name":"Cube_30"},{"mesh":1,"translation":[-2979.19482,-4893.608,-3010.14941],"rotation":[2.07241645E-15,0.0,0.0,1.0],"scale":[3.0,3.0,2.0],"name":"Cube_31"},{"mesh":1,"translation":[-1779.19507,-4593.608,-3039.7146],"rotation":[2.07241645E-15,0.0,0.0,1.0],"scale":[3.0,3.0,2.0],"name":"Cube_32"},{"mesh":1,"translation":[-1379.19507,-3293.609,-3010.14966],"rotation":[2.07241645E-15,0.0,0.0,1.0],"scale":[3.0,3.0,2.0],"name":"Cube_33"},{"mesh":1,"translation":[320.805542,-4993.60938,-3010.14941],"rotation":[-8.47032947E-22,-1.77635684E-15,1.0,-4.33125763E-07],"scale":[1.0,1.0,2.0],"name":"Cube_34"},{"mesh":1,"translation":[-1079.19507,-3293.609,-3010.14966],"rotation":[2.07241645E-15,0.0,0.0,1.0],"scale":[3.0,3.0,2.0],"name":"Cube_35"},{"mesh":1,"translation":[1220.80554,-4993.608,-3010.14941],"rotation":[-8.47032947E-22,-1.77635684E-15,1.0,-4.33125763E-07],"scale":[1.0,1.0,2.0],"name":"Cube_36"},{"mesh":1,"translation":[-779.195,-3293.609,-3010.14966],"rotation":[2.07241645E-15,0.0,0.0,1.0],"scale":[3.0,3.0,2.0],"name":"Cube_37"},{"mesh":1,"translation":[1120.80432,-4993.60938,-3010.14941],"rotation":[-8.47032947E-22,-1.77635684E-15,1.0,-4.33125763E-07],"scale":[1.0,1.0,2.0],"name":"Cube_38"},{"mesh":1,"translation":[1420.805,-4593.608,-3010.14966],"rotation":[1.25607479E-15,1.25607363E-15,-0.7071066,0.707106948],"scale":[1.0,1.0,2.0],"name":"Cube_39"},{"mesh":1,"translation":[1420.80457,-4093.609,-3010.14966],"rotation":[1.25607479E-15,1.25607363E-15,-0.7071066,0.707106948],"scale":[1.0,1.0,2.0],"name":"Cube_40"},{"mesh":1,"translation":[-79.19446,-4993.60938,-3010.14941],"rotation":[-8.47032947E-22,-1.77635684E-15,1.0,-4.33125763E-07],"scale":[1.0,1.0,2.0],"name":"Cube_41"},{"mesh":1,"translation":[-1679.19507,-3293.609,-3010.14966],"rotation":[2.07241645E-15,0.0,0.0,1.0],"scale":[3.0,3.0,2.0],"name":"Cube_42"},{"mesh":1,"translation":[120.804382,-4993.60938,-3010.14941],"rotation":[-8.47032947E-22,-1.77635684E-15,1.0,-4.33125763E-07],"scale":[1.0,1.0,2.0],"name":"Cube_43"},{"mesh":1,"translation":[-479.195038,-3293.609,-3010.14966],"rotation":[2.07241645E-15,0.0,0.0,1.0],"scale":[3.0,3.0,2.0],"name":"Cube_44"},{"mesh":1,"translation":[-79.19464,-4893.60938,-3010.14941],"rotation":[-8.47032947E-22,-1.77635684E-15,1.0,-4.33125763E-07],"scale":[1.0,1.0,2.0],"name":"Cube_45"},{"mesh":1,"translation":[620.8048,-4093.609,-3010.14966],"rotation":[1.77635684E-15,0.0,0.0,1.0],"scale":[3.0,2.0,2.0],"name":"Cube_46"},{"mesh":1,"translation":[20.8049316,-4093.609,-3010.14966],"rotation":[2.19539886E-15,0.0,0.0,1.0],"scale":[3.0,2.71776175,2.0],"name":"Cube_47"},{"mesh":1,"translation":[220.8053,-4993.60938,-3010.14941],"rotation":[-8.47032947E-22,-1.77635684E-15,1.0,-4.33125763E-07],"scale":[1.0,1.0,2.0],"name":"Cube_48"},{"mesh":1,"translation":[1420.80457,-4693.608,-3010.14966],"rotation":[1.25607479E-15,1.25607363E-15,-0.7071066,0.707106948],"scale":[1.0,1.0,2.0],"name":"Cube_49"},{"mesh":1,"translation":[320.8048,-4093.609,-3010.14966],"rotation":[1.77635684E-15,0.0,0.0,1.0],"scale":[3.0,2.0,2.0],"name":"Cube_50"},{"mesh":1,"translation":[1020.80505,-4093.609,-3010.14966],"rotation":[1.77635684E-15,0.0,0.0,1.0],"scale":[1.0,1.0,2.0],"name":"Cube_51"},{"mesh":1,"translation":[1020.80542,-4993.608,-3010.14941],"rotation":[-8.47032947E-22,-1.77635684E-15,1.0,-4.33125763E-07],"scale":[1.0,1.0,2.0],"name":"Cube_52"},{"mesh":1,"translation":[-579.195,-4093.609,-3086.155],"rotation":[2.18638558E-15,0.0,0.0,1.0],"scale":[9.0,2.736631,0.5],"name":"Cube_53"},{"mesh":1,"translation":[1420.80457,-4193.608,-3010.14966],"rotation":[1.25607479E-15,1.25607363E-15,-0.7071066,0.707106948],"scale":[1.0,1.0,2.0],"name":"Cube_54"},{"mesh":1,"translation":[-1379.19507,-2793.60815,-3010.14966],"rotation":[2.07241645E-15,0.0,0.0,1.0],"scale":[3.0,3.0,2.0],"name":"Cube_55"},{"mesh":1,"translation":[1420.80457,-4393.608,-3010.14966],"rotation":[1.25607479E-15,1.25607363E-15,-0.7071066,0.707106948],"scale":[1.0,1.0,2.0],"name":"Cube_56"},{"mesh":1,"translation":[21.0,-4367.0,-3008.0],"rotation":[1.90323941E-15,0.0,0.0,1.0],"scale":[2.395172,3.5,2.0],"name":"Cube_57"},{"mesh":1,"translation":[720.8053,-4993.6084,-3010.14941],"rotation":[-8.47032947E-22,-1.77635684E-15,1.0,-4.33125763E-07],"scale":[1.0,1.0,2.0],"name":"Cube_58"},{"mesh":1,"translation":[1420.805,-4493.608,-3010.14966],"rotation":[1.25607479E-15,1.25607363E-15,-0.7071066,0.707106948],"scale":[1.0,1.0,2.0],"name":"Cube_59"},{"mesh":1,"translation":[1420.80554,-4993.608,-3010.14941],"rotation":[1.25607479E-15,1.25607363E-15,-0.7071066,0.707106948],"scale":[1.0,1.0,2.0],"name":"Cube_60"},{"mesh":1,"translation":[1320.80554,-4993.608,-3010.14941],"rotation":[-8.47032947E-22,-1.77635684E-15,1.0,-4.33125763E-07],"scale":[1.0,1.0,2.0],"name":"Cube_61"},{"mesh":1,"translation":[820.805054,-4093.609,-3010.14966],"rotation":[1.77635684E-15,0.0,0.0,1.0],"scale":[1.0,1.0,2.0],"name":"Cube_62"},{"mesh":1,"translation":[20.8049316,-4693.608,-3010.14966],"rotation":[2.07241645E-15,0.0,0.0,1.0],"scale":[2.288723,3.0,2.0],"name":"Cube_63"},{"mesh":1,"translation":[1420.80457,-4893.608,-3010.14941],"rotation":[1.25607479E-15,1.25607363E-15,-0.7071066,0.707106948],"scale":[1.0,1.0,2.0],"name":"Cube_64"},{"mesh":1,"translation":[120.80542,-4893.60938,-3010.14941],"rotation":[-8.47032947E-22,-1.77635684E-15,1.0,-4.33125763E-07],"scale":[1.0,1.0,2.0],"name":"Cube_65"},{"mesh":1,"translation":[520.805542,-4993.6084,-3010.14941],"rotation":[-8.47032947E-22,-1.77635684E-15,1.0,-4.33125763E-07],"scale":[1.0,1.0,2.0],"name":"Cube_66"},{"mesh":1,"translation":[1420.805,-4793.6084,-3010.14966],"rotation":[1.25607479E-15,1.25607363E-15,-0.7071066,0.707106948],"scale":[1.0,1.0,2.0],"name":"Cube_67"},{"mesh":1,"translation":[-179.195068,-3293.609,-3010.14966],"rotation":[2.07241645E-15,0.0,0.0,1.0],"scale":[3.0,3.0,2.0],"name":"Cube_68"},{"mesh":1,"translation":[820.8054,-4993.6084,-3010.14941],"rotation":[-8.47032947E-22,-1.77635684E-15,1.0,-4.33125763E-07],"scale":[1.0,1.0,2.0],"name":"Cube_69"},{"mesh":1,"translation":[620.8043,-4993.60938,-3010.14941],"rotation":[-8.47032947E-22,-1.77635684E-15,1.0,-4.33125763E-07],"scale":[1.0,1.0,2.0],"name":"Cube_70"},{"mesh":1,"translation":[20.805542,-4993.60938,-3010.14941],"rotation":[-8.47032947E-22,-1.77635684E-15,1.0,-4.33125763E-07],"scale":[1.0,1.0,2.0],"name":"Cube_71"},{"mesh":1,"translation":[420.805542,-4993.6084,-3010.14941],"rotation":[-8.47032947E-22,-1.77635684E-15,1.0,-4.33125763E-07],"scale":[1.0,1.0,2.0],"name":"Cube_72"},{"mesh":1,"translation":[1420.80457,-4293.6084,-3010.14966],"rotation":[1.25607479E-15,1.25607363E-15,-0.7071066,0.707106948],"scale":[1.0,1.0,2.0],"name":"Cube_73"},{"mesh":1,"translation":[920.805054,-4093.609,-3010.14966],"rotation":[1.77635684E-15,0.0,0.0,1.0],"scale":[1.0,1.0,2.0],"name":"Cube_74"},{"mesh":1,"translation":[920.8054,-4993.608,-3010.14941],"rotation":[-8.47032947E-22,-1.77635684E-15,1.0,-4.33125763E-07],"scale":[1.0,1.0,2.0],"name":"Cube_75"},{"mesh":1,"translation":[-779.195,-1525.81616,-3010.14941],"rotation":[2.07241645E-15,0.0,0.0,1.0],"scale":[3.0,3.0,2.0],"name":"Cube_76"}],"meshes":[{"primitives":[{"attributes":{"POSITION":1,"NORMAL":2,"TEXCOORD_0":3},"indices":0,"material":0}],"name":"Ground"},{"primitives":[{"attributes":{"POSITION":5,"NORMAL":6,"TEXCOORD_0":7,"TEXCOORD_1":8},"indices":4,"material":0}],"name":"Cube"}],"accessors":[{"bufferView":0,"componentType":5123,"count":600,"type":"SCALAR","name":"accessorIndices"},{"bufferView":1,"componentType":5126,"count":121,"max":[500.0,500.0,1.110223E-14],"min":[-500.0,-500.0,-1.110223E-14],"type":"VEC3","name":"accessorPositions"},{"bufferView":1,"byteOffset":1452,"componentType":5126,"count":121,"type":"VEC3","name":"accessorNormals"},{"bufferView":2,"componentType":5126,"count":121,"type":"VEC2","name":"accessorUVs"},{"bufferView":0,"byteOffset":1200,"componentType":5123,"count":36,"type":"SCALAR","name":"accessorIndices"},{"bufferView":1,"byteOffset":2904,"componentType":5126,"count":24,"max":[50.0,50.0,50.0],"min":[-50.0,-50.0,-50.0],"type":"VEC3","name":"accessorPositions"},{"bufferView":1,"byteOffset":3192,"componentType":5126,"count":24,"type":"VEC3","name":"accessorNormals"},{"bufferView":2,"byteOffset":968,"componentType":5126,"count":24,"type":"VEC2","name":"accessorUVs"},{"bufferView":2,"byteOffset":1160,"componentType":5126,"count":24,"type":"VEC2","name":"accessorUV2s"}],"bufferViews":[{"buffer":0,"byteLength":1272,"name":"bufferViewScalar"},{"buffer":0,"byteOffset":1272,"byteLength":3480,"byteStride":12,"name":"bufferViewFloatVec3"},{"buffer":0,"byteOffset":4752,"byteLength":1352,"byteStride":8,"name":"bufferViewFloatVec2"}],"buffers":[{"uri":"Map1.bin","byteLength":6104}],"materials":[{"pbrMetallicRoughness":{"metallicFactor":0.0,"roughnessFactor":0.7022211},"name":"Urp"}]}