{"asset":{"version":"2.0","generator":"babylon.js glTF exporter for 3dsmax 2019 v20230905.2"},"scene":0,"scenes":[{"nodes":[0,1,2]}],"nodes":[{"skin":0,"mesh":0,"translation":[0.0,0.0,-1.837474E-09],"scale":[0.0254,0.0254,0.0254],"name":"Object02"},{"skin":1,"mesh":1,"translation":[-0.150612146,0.19047,0.0122251911],"scale":[0.0254,0.0254,0.0254],"name":"Object01"},{"children":[3,4,38],"translation":[0.0,0.169138625,1.01567466E-08],"rotation":[0.0,-0.7071063,0.0,0.707107246],"scale":[0.0253999978,0.0254,0.0253999978],"name":"Bip001"},{"translation":[0.0,-6.657773,0.0],"rotation":[0.0,0.7071063,0.0,0.707107246],"scale":[0.9999998,1.0,0.9999998],"name":"Bip001 Footsteps"},{"children":[5],"rotation":[-0.499999642,-0.499999672,0.500000358,0.500000358],"scale":[1.0,0.999999762,0.999999762],"name":"Bip001 Pelvis"},{"children":[6,30,34],"translation":[0.6278529,-8.209108E-09,-0.318001032],"rotation":[-2.08047641E-06,0.000398159056,6.93676043E-07,0.99999994],"scale":[0.9999998,0.9999998,0.9999999],"name":"Bip001 Spine"},{"children":[7],"translation":[1.79678583,-5.29144E-09,0.00190755725],"rotation":[2.84217162E-14,2.91038374E-11,2.842171E-14,1.0],"scale":[1.0,0.9999998,0.9999997],"name":"Bip001 Spine1"},{"children":[8,18,28],"translation":[2.997201,3.657533E-08,0.2343604],"rotation":[-7.912101E-14,0.155409545,4.31044015E-07,0.9878501],"scale":[1.0,1.0,0.9999998],"name":"Bip001 Neck"},{"children":[9],"translation":[-0.102038383,0.912711442,0.09706926],"rotation":[-0.49706158,-0.8536131,-0.07840221,-0.134638891],"scale":[1.0,0.99999994,1.00000012],"name":"Bip001 L Clavicle"},{"children":[10],"translation":[0.9862542,-9.536743E-07,3.7252903E-09],"rotation":[0.0443143249,0.0589403249,-0.07841284,0.99419],"scale":[1.0,0.9999999,0.999999762],"name":"Bip001 L UpperArm"},{"children":[11],"translation":[2.37583923,-9.536743E-07,-1.1920929E-07],"rotation":[9.250752E-09,-0.107830986,-5.9954246E-08,0.9941693],"scale":[0.9999999,0.9999998,0.99999994],"name":"Bip001 L Forearm"},{"children":[12,15],"translation":[1.8464148,0.0,5.96046448E-08],"rotation":[-0.766423464,0.07008076,-0.0354461,0.637516558],"scale":[0.99999994,1.0,1.00000012],"name":"Bip001 L Hand"},{"children":[13],"translation":[0.940946341,-0.580381,-0.0818119049],"rotation":[0.4648076,-0.05248803,-0.470710367,0.748084664],"scale":[0.99999994,1.0,0.9999999],"name":"Bip001 L Finger0"},{"children":[14],"translation":[0.517244339,-1.90734863E-06,0.0],"rotation":[4.59855931E-09,0.0081691565,-5.76275072E-09,0.9999666],"scale":[1.0,0.99999994,0.99999994],"name":"Bip001 L Finger01"},{"translation":[0.304695129,0.0,0.0],"rotation":[-2.951204E-10,0.165755421,1.53462789E-08,0.9861669],"scale":[1.0,0.99999994,1.00000012],"name":"Bip001 L Finger02"},{"children":[16],"translation":[1.77077556,-0.0414589047,-0.0003604889],"rotation":[-0.000444282225,0.100598477,0.0474298336,0.9937959],"scale":[1.0,0.99999994,1.0],"name":"Bip001 L Finger1"},{"children":[17],"translation":[0.341536522,5.96046448E-08,1.90734863E-06],"rotation":[6.37828235E-09,0.169102266,-2.8347924E-09,0.9855985],"scale":[1.00000036,1.00000024,1.00000036],"name":"Bip001 L Finger11"},{"translation":[0.252604485,5.96046448E-08,0.0],"rotation":[-6.036424E-09,0.116402231,-1.87539384E-09,0.99320215],"scale":[0.99999994,1.0,1.0],"name":"Bip001 L Finger12"},{"children":[19],"translation":[-0.102039337,-0.912713349,0.0970644951],"rotation":[0.497061253,-0.8536133,0.07839984,-0.134640247],"scale":[0.9999998,1.0,1.00000024],"name":"Bip001 R Clavicle"},{"children":[20],"translation":[0.9862547,-9.536743E-07,-1.86264515E-08],"rotation":[-0.0443143249,0.05894032,0.07841284,0.99419],"name":"Bip001 R UpperArm"},{"children":[21],"translation":[2.375839,0.0,2.38418579E-07],"rotation":[-8.899456E-09,-0.107830994,2.99771159E-08,0.9941693],"name":"Bip001 R Forearm"},{"children":[22,25],"translation":[1.84641361,-9.536743E-07,1.1920929E-07],"rotation":[0.766423464,0.07008071,0.03544617,0.637516558],"scale":[1.0,1.00000012,1.0],"name":"Bip001 R Hand"},{"children":[23],"translation":[0.940945864,0.5803809,-0.08181],"rotation":[-0.46480754,-0.0524880663,0.470710278,0.7480848],"scale":[0.9999999,1.00000024,1.0],"name":"Bip001 R Finger0"},{"children":[24],"translation":[0.517244339,-4.76837158E-07,0.0],"rotation":[-3.08510972E-09,0.008169158,6.403058E-10,0.9999666],"scale":[0.9999999,0.999999762,0.9999998],"name":"Bip001 R Finger01"},{"translation":[0.3046956,1.43051147E-06,0.0],"rotation":[1.18343424E-08,0.165755391,3.09876835E-09,0.986166954],"scale":[1.00000012,0.9999998,1.00000012],"name":"Bip001 R Finger02"},{"children":[26],"translation":[1.77077556,0.0414588451,-0.0003604889],"rotation":[0.000444270263,0.100598477,-0.0474298373,0.9937959],"scale":[1.0,1.00000024,1.0],"name":"Bip001 R Finger1"},{"children":[27],"translation":[0.341535568,5.96046448E-08,9.536743E-07],"rotation":[-1.12210563E-09,0.169102281,0.0,0.9855985],"scale":[0.9999998,0.9999998,0.99999994],"name":"Bip001 R Finger11"},{"translation":[0.252603054,1.1920929E-07,1.90734863E-06],"rotation":[2.25633312E-09,0.116402261,-9.376968E-10,0.99320215],"scale":[1.0,1.00000012,1.0],"name":"Bip001 R Finger12"},{"children":[29],"translation":[1.10190487,0.0,0.0],"rotation":[0.0,-0.0328701138,-9.116672E-08,0.9994597],"scale":[0.999999762,0.9999998,0.9999999],"name":"Bip001 Head"},{"translation":[0.192795753,-9.536743E-07,-0.0201973915],"rotation":[-0.610787749,-7.366602E-07,0.79179436,6.361889E-07],"scale":[1.00000012,1.0,1.00000012],"name":"Bone001"},{"children":[31],"translation":[-0.62810564,1.15356863,0.317503721],"rotation":[-0.05375743,-0.0553178,0.9928368,0.0912428349],"scale":[1.0,1.0,0.99999994],"name":"Bip001 L Thigh"},{"children":[32],"translation":[2.65643525,-7.15255737E-07,-5.96046448E-08],"rotation":[1.4039977E-09,-0.0998322442,-2.24639667E-08,0.9950043],"scale":[1.0,1.00000024,1.00000012],"name":"Bip001 L Calf"},{"children":[33],"translation":[3.31641674,2.38418579E-07,7.4505806E-08],"rotation":[-0.09942482,0.03143301,0.09167629,0.9903142],"scale":[1.00000012,1.00000012,0.999999642],"name":"Bip001 L Foot"},{"translation":[0.8066025,-4.76837158E-07,-1.3259629],"rotation":[-1.545419E-08,0.7071068,1.545414E-08,0.7071067],"scale":[0.9999999,1.0,0.9999998],"name":"Bip001 L Toe0"},{"children":[35],"translation":[-0.62810564,-1.1535697,0.317497373],"rotation":[-0.0537576452,0.05531501,0.992836952,-0.09124278],"scale":[0.99999994,0.9999998,0.999999762],"name":"Bip001 R Thigh"},{"children":[36],"translation":[2.656435,0.0,0.0],"rotation":[-2.33999459E-10,-0.0998322442,3.74399534E-09,0.9950043],"scale":[0.9999999,1.0,1.00000036],"name":"Bip001 R Calf"},{"children":[37],"translation":[3.31641579,4.76837158E-07,-8.940697E-08],"rotation":[0.0994248,0.0314329825,-0.09167638,0.9903142],"scale":[0.9999998,0.9999999,0.9999997],"name":"Bip001 R Foot"},{"translation":[0.806602538,4.76837158E-07,-1.32596326],"rotation":[1.54541091E-08,0.7071068,-3.65275667E-08,0.7071067],"scale":[1.00000012,1.00000012,0.999999762],"name":"Bip001 R Toe0"},{"translation":[0.31326887,0.822234631,5.93180656],"rotation":[-1.616813E-07,2.09671526E-07,-0.6959042,0.718134642],"scale":[1.00000012,0.99999994,0.9999998],"name":"Bip001 Prop1"}],"meshes":[{"primitives":[{"attributes":{"POSITION":1,"NORMAL":2,"COLOR_0":3,"TEXCOORD_0":4,"JOINTS_0":5,"WEIGHTS_0":6},"indices":0,"material":0}],"name":"Object02"},{"primitives":[{"attributes":{"POSITION":8,"NORMAL":9,"COLOR_0":10,"TEXCOORD_0":11,"JOINTS_0":12,"WEIGHTS_0":13},"indices":7,"material":0}],"name":"Object01"}],"accessors":[{"bufferView":0,"componentType":5123,"count":4362,"type":"SCALAR","name":"accessorIndices"},{"bufferView":1,"componentType":5126,"count":939,"max":[6.67714834,15.4226465,2.13261032],"min":[-6.677145,-4.39629548E-06,-1.37799287],"type":"VEC3","name":"accessorPositions"},{"bufferView":1,"byteOffset":11268,"componentType":5126,"count":939,"type":"VEC3","name":"accessorNormals"},{"bufferView":2,"componentType":5126,"count":939,"type":"VEC4","name":"accessorColors"},{"bufferView":3,"componentType":5126,"count":939,"type":"VEC2","name":"accessorUVs"},{"bufferView":4,"componentType":5123,"count":939,"type":"VEC4","name":"accessorJoints"},{"bufferView":2,"byteOffset":15024,"componentType":5126,"count":939,"type":"VEC4","name":"accessorWeights"},{"bufferView":0,"byteOffset":8724,"componentType":5123,"count":192,"type":"SCALAR","name":"accessorIndices"},{"bufferView":1,"byteOffset":22536,"componentType":5126,"count":46,"max":[0.670528769,1.67116737,9.479606],"min":[-0.670528233,-1.09236372,-1.76793194],"type":"VEC3","name":"accessorPositions"},{"bufferView":1,"byteOffset":23088,"componentType":5126,"count":46,"type":"VEC3","name":"accessorNormals"},{"bufferView":2,"byteOffset":30048,"componentType":5126,"count":46,"type":"VEC4","name":"accessorColors"},{"bufferView":3,"byteOffset":7512,"componentType":5126,"count":46,"type":"VEC2","name":"accessorUVs"},{"bufferView":4,"byteOffset":7512,"componentType":5123,"count":46,"type":"VEC4","name":"accessorJoints"},{"bufferView":2,"byteOffset":30784,"componentType":5126,"count":46,"type":"VEC4","name":"accessorWeights"},{"bufferView":5,"componentType":5126,"count":35,"type":"MAT4","name":"accessorInverseBindMatrices"},{"bufferView":5,"byteOffset":2240,"componentType":5126,"count":2,"type":"MAT4","name":"accessorInverseBindMatrices"}],"bufferViews":[{"buffer":0,"byteLength":9108,"name":"bufferViewScalar"},{"buffer":0,"byteOffset":9108,"byteLength":23640,"byteStride":12,"name":"bufferViewFloatVec3"},{"buffer":0,"byteOffset":32748,"byteLength":31520,"byteStride":16,"name":"bufferViewFloatVec4"},{"buffer":0,"byteOffset":64268,"byteLength":7880,"byteStride":8,"name":"bufferViewFloatVec2"},{"buffer":0,"byteOffset":72148,"byteLength":7880,"byteStride":8,"name":"bufferViewUnsignedShortVec4"},{"buffer":0,"byteOffset":80028,"byteLength":2368,"name":"bufferViewFloatMat4"}],"buffers":[{"uri":"Skin.bin","byteLength":82396}],"materials":[{"pbrMetallicRoughness":{"baseColorFactor":[0.007843138,0.007843138,0.007843138,1.0],"metallicFactor":0.0,"roughnessFactor":0.7022211},"name":"defaultsds"}],"skins":[{"inverseBindMatrices":14,"skeleton":2,"joints":[2,4,5,6,7,8,9,10,11,12,13,14,15,16,17,18,19,20,21,22,23,24,25,26,27,28,29,30,31,32,33,34,35,36,37],"name":"skeleton #0"},{"inverseBindMatrices":15,"skeleton":2,"joints":[2,38],"name":"skeleton #1"}]}